<svg width="40" height="40" viewBox="0 0 40 40" fill="none" xmlns="http://www.w3.org/2000/svg">
<path fill-rule="evenodd" clip-rule="evenodd" d="M11.5147 25.6568C10.7337 26.4379 10.7337 27.7042 11.5147 28.4853C12.2958 29.2663 13.5621 29.2663 14.3431 28.4853L20 22.8284L25.6569 28.4853C26.4379 29.2663 27.7042 29.2663 28.4853 28.4853C29.2663 27.7042 29.2663 26.4379 28.4853 25.6568L22.8284 20L28.4853 14.3431C29.2663 13.5621 29.2663 12.2957 28.4853 11.5147C27.7042 10.7337 26.4379 10.7337 25.6569 11.5147L20 17.1716L14.3431 11.5147C13.5621 10.7337 12.2958 10.7337 11.5147 11.5147C10.7337 12.2957 10.7337 13.5621 11.5147 14.3431L17.1716 20L11.5147 25.6568Z" fill="#828282"/>
</svg>
