<svg width="40" height="40" viewBox="0 0 40 40" fill="none" xmlns="http://www.w3.org/2000/svg">
<path d="M20 30C25.5228 30 30 25.5228 30 20C30 14.4772 25.5228 10 20 10C14.4772 10 10 14.4772 10 20" stroke="#828282" stroke-width="4" stroke-linecap="round"/>
<path fill-rule="evenodd" clip-rule="evenodd" d="M17.0709 19.8995C17.852 19.1184 17.852 17.8521 17.0709 17.0711C16.2899 16.29 15.0236 16.29 14.2425 17.0711L9.99988 21.3137L5.75724 17.0711C4.97619 16.29 3.70986 16.29 2.92881 17.0711C2.14776 17.8521 2.14776 19.1184 2.92881 19.8995L8.58566 25.5563C8.63448 25.6052 8.68519 25.6509 8.73756 25.6936C9.52311 26.3343 10.6819 26.2886 11.4141 25.5563L17.0709 19.8995Z" fill="#828282"/>
</svg>
